<svg width="96" height="86" viewBox="0 0 96 86" fill="none" xmlns="http://www.w3.org/2000/svg">
<path d="M77.1 8.6002H72.1C71.1 4.0002 67 0.700195 62.2 0.700195C56.5 0.700195 52 5.2002 52 10.9002C52 16.5002 56.6 21.1002 62.2 21.1002C67 21.1002 71.1 17.7002 72.1 13.2002H77.1C84.7 13.2002 90.8 19.4002 90.8 27.0002C90.8 34.6002 84.6 40.7002 77.1 40.7002H62.6L67.6 35.7002L64.3 32.4002L53.8 43.0002L64.4 53.6002L67.7 50.3002L62.7 45.3002H77.2C87.3 45.3002 95.6 37.1002 95.6 26.9002C95.6 16.7002 87.3 8.6002 77.1 8.6002Z" fill="black"/>
<path d="M10.7002 21.0998C15.5002 21.0998 19.6002 17.6998 20.6002 13.1998H40.1002L35.1002 18.1998L38.4002 21.4998L49.0002 10.8998L38.4002 0.299805L35.1002 3.5998L40.1002 8.5998H20.7002C19.6002 4.0998 15.6002 0.699804 10.8002 0.699804C5.20023 0.699804 0.600233 5.2998 0.600233 10.8998C0.500233 16.4998 5.10023 21.0998 10.7002 21.0998Z" fill="black"/>
<path d="M77.1004 64.8994C71.5004 64.8994 66.9004 69.4994 66.9004 75.0994C66.9004 80.6994 71.5004 85.2994 77.1004 85.2994C82.7004 85.2994 87.3004 80.6994 87.3004 75.0994C87.3004 69.4994 82.8004 64.8994 77.1004 64.8994Z" fill="black"/>
<path d="M50.3002 67.7998L55.3002 72.7998H20.1002C12.5002 72.7998 6.4002 66.5998 6.4002 58.9998C6.4002 51.3998 12.6002 45.2998 20.1002 45.2998H31.0002C32.1002 49.7998 36.1002 53.1998 40.9002 53.1998C46.5002 53.1998 51.1002 48.5998 51.1002 42.9998C51.1002 37.3998 46.5002 32.7998 40.9002 32.7998C36.1002 32.7998 32.0002 36.1998 31.0002 40.6998H20.1002C10.0002 40.6998 1.7002 48.8998 1.7002 59.0998C1.7002 69.1998 9.9002 77.4998 20.1002 77.4998H55.3002L50.3002 82.4998L53.6002 85.7998L64.2002 75.1998L53.6002 64.4998L50.3002 67.7998Z" fill="black"/>
</svg>
